<svg width="40" height="40" viewBox="0 0 40 40" fill="none" xmlns="http://www.w3.org/2000/svg">
  <circle cx="20" cy="20" r="20" fill="#22C55E"/>
  <path d="M12 20C12 14.4772 16.4772 10 22 10C27.5228 10 32 14.4772 32 20C32 25.5228 27.5228 30 22 30C16.4772 30 12 25.5228 12 20Z" fill="white"/>
  <path d="M22 14C19.2386 14 17 16.2386 17 19C17 21.7614 19.2386 24 22 24C24.7614 24 27 21.7614 27 19C27 16.2386 24.7614 14 22 14ZM15 19C15 15.134 18.134 12 22 12C25.866 12 29 15.134 29 19C29 22.866 25.866 26 22 26C18.134 26 15 22.866 15 19Z" fill="#22C55E"/>
  <path d="M8 20C8 25.5228 12.4772 30 18 30C23.5228 30 28 25.5228 28 20C28 14.4772 23.5228 10 18 10C12.4772 10 8 14.4772 8 20Z" fill="#22C55E"/>
</svg> 